<?xml version="1.0" encoding="utf-8"?>
<!-- Generator: Adobe Illustrator 22.1.0, SVG Export Plug-In . SVG Version: 6.00 Build 0)  -->
<svg version="1.1" id="Layer_1" xmlns="http://www.w3.org/2000/svg" xmlns:xlink="http://www.w3.org/1999/xlink" x="0px" y="0px"
	 viewBox="0 0 192.4 192.4" style="enable-background:new 0 0 192.4 192.4;" xml:space="preserve">
<style type="text/css">
	.st0{fill:#D1D3D4;stroke:#58595B;stroke-miterlimit:10;}
	.st1{fill:#F37021;}
</style>
<title>Asset 3</title>
<g id="f7e709e4-bd2a-45c6-ab32-6a5a66015a45">
	<g id="_x37_63e2dbf-32c0-4c49-b303-ba8b59debccb">
		<path class="st0" d="M1,104.2l8,5.8c7.8-3.5,11.3-12.7,7.8-20.6c0,0,0,0,0,0v-0.1c-2.3-5.1-7.3-8.6-12.9-9.1
			c2.5-14.1,16-38.8,16-38.8l3.4-6.6l1.2,8.9c8,3.1,17-0.9,20.1-8.9c2-5.2,1.1-11-2.4-15.3c10.9-7.7,37.4-16,37.4-16l7-2.6l-4.8,6.8
			c2.2,6.1,8,10.2,14.6,10.2c8.1,0,14.9-6.2,15.6-14.4c14.3,2.3,40.3,16.5,40.3,16.5l6.7,3.1l-11.1,2c-2.3,8.3,2.6,16.9,10.9,19.1
			c4.8,1.3,10,0.2,13.9-2.9c8.2,11.3,16.8,39.7,16.8,39.7l2,7.2l-7.9-6.5c-7.7,3.8-11,13.1-7.2,20.8c2.4,5,7.3,8.3,12.9,8.7
			c-2.3,14.3-15.8,39.6-15.8,39.6l-3.7,6.4l-0.8-9.5c-7.9-3.4-17,0.2-20.5,8.1c-2.4,5.6-1.3,12.2,2.8,16.7
			c-10.9,7.9-37.7,16.6-37.7,16.6l-7.1,2.2l4.7-5.9c-2.7-8.2-11.5-12.6-19.6-9.9c-6,2-10.2,7.3-10.6,13.6c-14.5-2.4-40.8-17-40.8-17
			l-6.5-3.8l10.9-1c2.8-8.1-1.5-17-9.7-19.8c-5.3-1.8-11.2-0.7-15.4,3.1c-8.1-11.6-16.1-39.4-16.1-39.4L1,104.2z"/>
		<g>
			<path class="st0" d="M32.9,83.8V65c0.4-0.8,0.8-1.6,1.3-2.3c5.1-3.9,10.6-7.4,16.3-10.4c5.6,9.1,10.6,18.5,15,28.2l0.7-0.1
				C71.4,68.2,76.6,55,81.9,41.6c6.1-1.1,12.2-1.7,18.4-1.8c0.7,0.6,1.3,1.4,1.7,2.2v59.7c-0.1,1.2-0.2,2.4-0.5,3.6
				c-0.1,0.7-0.4,1.3-0.8,1.8c-0.3,0.4-0.6,0.7-1,0.9c-0.4,0.2-0.8,0.4-1.2,0.7c-5.8,0-11.5-0.1-17.2-0.3
				c-5.2,11.7-10.3,22.7-15.4,32.4c-5.1-12.4-10.1-24-14.9-34.2c-5.3-0.5-10.4-1-15.2-1.6l-1-0.6c-0.3-0.2-0.6-0.4-0.8-0.7
				c-0.3-0.3-0.5-0.8-0.7-1.2c-0.2-0.7-0.3-1.4-0.4-2.1L32.9,83.8z M51.7,144.8l-0.8,0.3c-5.5-2.9-10.8-6.2-15.8-9.9
				c-0.6-0.5-1-1.1-1.4-1.7c-0.4-0.6-0.7-1.3-0.8-2v-20c0-0.2,0.1-0.3,0.2-0.5c0.1-0.2,0.2-0.5,0.4-0.7c0.2-0.2,0.4-0.4,0.6-0.6
				c0.2-0.1,0.4-0.2,0.6-0.2c5,1.2,10.3,2.2,15.7,3c0.1,0.1,0.3,0.1,0.4,0.2c0.1,0.1,0.3,0.2,0.4,0.2c0.2,0.3,0.5,0.8,1,1.4
				s0.7,0.9,0.6,1v28.2c0,0.3-0.2,0.6-0.5,0.8C51.9,144.4,51.7,144.6,51.7,144.8L51.7,144.8z M80.6,154.5c-0.1-0.4-0.3-0.7-0.6-1.1
				c-0.3-0.4-0.5-0.8-0.6-1.3v-33.6c0.2-0.4,0.4-0.7,0.7-1c0.4-0.6,0.8-1.1,1.1-1.4c0.2,0,0.3-0.1,0.4-0.2s0.3-0.1,0.4-0.2
				c5.9,0.3,12,0.5,18,0.5c0.2,0,0.4,0.2,0.6,0.5c0.3,0.4,0.5,0.8,0.7,1.2c0.2,0.5,0.4,0.9,0.5,1.3c0.1,0.3,0.2,0.6,0.2,0.9v33.7
				c0,0.9-0.4,1.7-1,2.4c-0.6,0.8-1.2,1.1-1.7,1.1c-6-0.1-12.1-0.8-18-1.9C81,154.9,80.7,154.6,80.6,154.5z"/>
			<path class="st0" d="M107.9,73.8v-29c0-0.8,0.1-1.5,0.4-2.2c0.3-0.7,0.7-1.6,1.1-2.6c14.7,1,29,4.9,42.2,11.4
				c0.6,1.4,1,2.3,1.2,2.7c0.2,0.3,0.3,0.6,0.3,0.9v87.1c0,1-0.4,1.9-1.1,2.6c-0.5,0.6-1.1,1.2-1.7,1.6c-7.3,3.5-14.9,6.2-22.7,8.1
				c-0.6,0.1-1.1-0.1-1.5-0.9c-0.5-0.7-0.7-1.5-0.7-2.4V81.6c0-0.5-0.1-1-0.2-1.4c-0.2-0.8-0.6-1.5-1.2-2.2
				c-4.9-0.4-9.9-0.6-14.9-0.7c-0.3,0-0.6-0.4-0.9-1.1C108,75.5,107.9,74.7,107.9,73.8z M157.1,82.4c-0.5-0.1-0.8-0.6-0.8-1.1V56.2
				c0-0.3,0.6-0.8,1.6-1.3c3.8,2.2,7.5,4.6,11,7.2c0.5,0.5,0.9,1,1.2,1.7c0.4,0.6,0.6,1.3,0.6,2v18.3c-0.1,0.6-0.6,1.1-1.2,1.3
				c-0.5,0.1-0.9,0.1-1.4,0c-3.4-0.9-6.8-1.7-10.4-2.4C157.6,82.8,157.3,82.6,157.1,82.4z"/>
		</g>
		<g>
			<path class="st1" d="M33,83.9V65.2c0.4-0.8,0.8-1.6,1.3-2.3c5.1-4,10.5-7.5,16.3-10.5c5.6,9,10.6,18.4,15,28.1l0.7-0.1
				C71.4,68.2,76.6,55,81.9,41.5c6.1-1.1,12.2-1.7,18.4-1.8c0.7,0.6,1.3,1.4,1.7,2.2v59.8c-0.1,1.2-0.2,2.4-0.5,3.6
				c-0.1,0.7-0.4,1.3-0.8,1.8c-0.3,0.4-0.6,0.7-1,0.9c-0.4,0.2-0.8,0.4-1.2,0.7c-5.8,0-11.5-0.1-17.2-0.3
				c-5.2,11.7-10.3,22.7-15.3,32.4c-5.1-12.4-10.1-24-14.9-34.2c-5.3-0.5-10.4-1-15.2-1.7c-0.4-0.2-0.7-0.4-1-0.6
				c-0.3-0.2-0.6-0.4-0.8-0.7c-0.3-0.3-0.5-0.8-0.7-1.2c-0.2-0.7-0.3-1.4-0.4-2.1L33,83.9z M51.8,144.7c-0.1,0-0.4,0.1-0.8,0.3
				c-5.5-2.9-10.8-6.2-15.8-10c-0.6-0.5-1-1.1-1.4-1.7c-0.4-0.6-0.7-1.3-0.8-2v-19.9c0-0.2,0.1-0.3,0.2-0.5c0.1-0.2,0.2-0.5,0.4-0.7
				c0.2-0.2,0.4-0.4,0.6-0.6c0.2-0.1,0.4-0.2,0.6-0.2c5,1.2,10.3,2.2,15.7,3c0.1,0.1,0.3,0.1,0.4,0.2c0.1,0.1,0.2,0.2,0.4,0.2
				c0.2,0.3,0.5,0.8,1,1.4s0.7,0.9,0.6,1v28.2c0,0.3-0.2,0.6-0.5,0.8C51.9,144.4,51.8,144.6,51.8,144.7L51.8,144.7z M80.6,154.6
				c-0.1-0.4-0.3-0.8-0.6-1.1c-0.3-0.4-0.5-0.8-0.6-1.3v-33.6c0.2-0.4,0.4-0.7,0.7-1c0.4-0.6,0.8-1.1,1.1-1.4c0.2,0,0.3-0.1,0.4-0.2
				s0.3-0.1,0.4-0.2c5.9,0.3,12,0.5,18,0.5c0.2,0,0.4,0.2,0.6,0.5c0.3,0.4,0.5,0.8,0.7,1.2c0.2,0.5,0.4,0.9,0.5,1.3
				c0.1,0.3,0.2,0.6,0.2,0.9V154c0,0.9-0.4,1.7-1,2.4c-0.6,0.7-1.2,1.1-1.7,1.1c-6-0.1-12.1-0.8-18-1.9
				C81,155,80.7,154.7,80.6,154.6L80.6,154.6z"/>
			<path class="st1" d="M107.9,73.8v-29c0-0.8,0.1-1.5,0.4-2.2c0.3-0.7,0.7-1.6,1.1-2.6c14.7,1,29,4.9,42.2,11.6
				c0.4,0.9,0.8,1.8,1.2,2.7c0.2,0.3,0.3,0.6,0.3,0.9v87c0,1-0.4,1.9-1.1,2.6c-0.5,0.6-1.1,1.2-1.7,1.6c-7.2,3.5-14.8,6.3-22.7,8.2
				c-0.6,0.1-1.1-0.1-1.5-0.8c-0.5-0.7-0.7-1.5-0.7-2.4V81.6c0-0.5-0.1-1-0.2-1.4c-0.2-0.8-0.6-1.6-1.2-2.2
				c-4.9-0.4-9.9-0.6-14.9-0.7c-0.3,0-0.6-0.4-0.9-1.1C108,75.4,107.9,74.6,107.9,73.8z M157.1,82.5c-0.5-0.1-0.8-0.6-0.8-1.1V56.3
				c0-0.3,0.6-0.7,1.6-1.3c3.8,2.2,7.5,4.7,11,7.3c0.5,0.5,0.9,1.1,1.2,1.7c0.4,0.6,0.6,1.3,0.6,2v18.2c-0.1,0.6-0.6,1.1-1.2,1.3
				c-0.5,0.1-0.9,0.1-1.4,0c-3.3-0.9-6.8-1.7-10.4-2.5C157.5,82.8,157.3,82.7,157.1,82.5z"/>
		</g>
	</g>
</g>
</svg>
